<svg width="32" height="32" viewBox="0 0 32 32" fill="none" xmlns="http://www.w3.org/2000/svg">
<g clip-path="url(#clip0)">
<path fill-rule="evenodd" clip-rule="evenodd" d="M9.75463 13C8.65672 14.3696 8 16.1081 8 18C8 22.4183 11.5817 26 16 26C20.4183 26 24 22.4183 24 18C24 16.1081 23.3433 14.3696 22.2454 13H9.75463Z" fill="#302114"/>
<path fill-rule="evenodd" clip-rule="evenodd" d="M22.95 11C22.9828 10.8384 23 10.6712 23 10.5C23 9.11929 21.8807 8 20.5 8C19.1193 8 18 9.11929 18 10.5C18 10.6712 18.0172 10.8384 18.05 11H22.95Z" fill="#302114"/>
<path fill-rule="evenodd" clip-rule="evenodd" d="M13.95 11C13.9828 10.8384 14 10.6712 14 10.5C14 9.11929 12.8807 8 11.5 8C10.1193 8 9 9.11929 9 10.5C9 10.6712 9.01722 10.8384 9.05001 11H13.95Z" fill="#302114"/>
<path d="M11 9V9C12.5316 4.09873 19.4684 4.09873 21 9V9" stroke="#302114"/>
<path fill-rule="evenodd" clip-rule="evenodd" d="M19.3536 11.7426H18.5921C17.2685 10.7525 15.4386 10.7525 14.115 11.7426H13.3536L13 11.3891C14.8521 9.53697 17.855 9.53697 19.7071 11.3891L19.3536 11.7426Z" fill="#302114"/>
<rect x="9" y="11" width="14" height="3" fill="#302114"/>
<circle cx="16" cy="16" r="2" fill="#F07C41"/>
<rect x="15" y="17" width="2" height="6" fill="#F07C41"/>
</g>
<defs>
<clipPath id="clip0">
<rect width="32" height="32" fill="white"/>
</clipPath>
</defs>
</svg>
